<svg width="42" height="21" viewBox="0 0 42 21" fill="none" xmlns="http://www.w3.org/2000/svg">
<rect width="42" height="21" rx="10.5" fill="#F56513"/>
<path d="M12.528 6.504V11.988C12.528 13.004 12.26 13.776 11.724 14.304C11.196 14.824 10.452 15.084 9.492 15.084C8.46 15.084 7.64 14.8 7.032 14.232C6.424 13.664 6.12 12.836 6.12 11.748H8.748C8.748 12.092 8.804 12.336 8.916 12.48C9.028 12.616 9.18 12.684 9.372 12.684C9.532 12.684 9.656 12.632 9.744 12.528C9.832 12.424 9.876 12.244 9.876 11.988V6.504H12.528ZM16.3421 8.628V9.672H18.9821V11.676H16.3421V12.876H19.3421V15H13.6781V6.504H19.3421V8.628H16.3421ZM26.2741 6.504V11.988C26.2741 13.004 26.0061 13.776 25.4701 14.304C24.9421 14.824 24.1981 15.084 23.2381 15.084C22.2061 15.084 21.3861 14.8 20.7781 14.232C20.1701 13.664 19.8661 12.836 19.8661 11.748H22.4941C22.4941 12.092 22.5501 12.336 22.6621 12.48C22.7741 12.616 22.9261 12.684 23.1181 12.684C23.2781 12.684 23.4021 12.632 23.4901 12.528C23.5781 12.424 23.6221 12.244 23.6221 11.988V6.504H26.2741ZM30.0282 6.504V11.292C30.0282 11.684 30.1122 11.996 30.2802 12.228C30.4562 12.452 30.7362 12.564 31.1202 12.564C31.5042 12.564 31.7882 12.452 31.9722 12.228C32.1562 11.996 32.2482 11.684 32.2482 11.292V6.504H34.9002V11.292C34.9002 12.1 34.7322 12.792 34.3962 13.368C34.0602 13.936 33.6002 14.364 33.0162 14.652C32.4322 14.94 31.7802 15.084 31.0602 15.084C30.3402 15.084 29.7002 14.94 29.1402 14.652C28.5882 14.364 28.1562 13.936 27.8442 13.368C27.5322 12.8 27.3762 12.108 27.3762 11.292V6.504H30.0282Z" fill="white"/>
</svg>
